<svg width="65" height="73" viewBox="0 0 65 73" fill="none" xmlns="http://www.w3.org/2000/svg">
<path d="M64.4815 25.6102H43.0529V72.4102H35.9101V50.8102H28.7672V72.4102H21.6244V25.6102H0.195801V18.4102H64.4815V25.6102ZM32.3387 0.410156C34.2331 0.410156 36.0499 1.16873 37.3894 2.51899C38.729 3.86925 39.4815 5.7006 39.4815 7.61016C39.4815 9.51971 38.729 11.3511 37.3894 12.7013C36.0499 14.0516 34.2331 14.8102 32.3387 14.8102C30.4443 14.8102 28.6274 14.0516 27.2879 12.7013C25.9484 11.3511 25.1958 9.51971 25.1958 7.61016C25.1958 3.61416 28.3744 0.410156 32.3387 0.410156Z" fill="#EC5863"/>
</svg>
