<svg width="68" height="73" viewBox="0 0 68 73" fill="none" xmlns="http://www.w3.org/2000/svg">
<path d="M33.725 0.638428C27.8874 0.638428 24.3931 1.52458 22.1721 2.6295C21.0601 3.18335 20.2707 3.76489 19.7397 4.36027C19.206 4.95566 18.8696 5.83074 18.8696 5.83074C18.7825 6.05314 18.7245 6.28584 18.6973 6.52304L17.2184 25.4757C17.199 25.592 17.2379 25.7803 17.2184 25.9077L17.0461 27.8129C17.0299 27.9851 17.0299 28.1585 17.0461 28.3307C17.0461 37.4692 24.5516 44.9461 33.725 44.9461C42.8984 44.9461 50.4039 37.4692 50.4039 28.3307V27.8987C50.4043 27.8701 50.4043 27.8415 50.4039 27.8129L48.7527 6.52304C48.7254 6.28584 48.6675 6.05314 48.5803 5.83074C48.5803 5.83074 48.244 4.95566 47.7102 4.36027C47.1793 3.76212 46.3898 3.18058 45.2779 2.6295C43.0568 1.52181 39.5626 0.638428 33.725 0.638428ZM33.725 44.9461C15.3782 44.9461 0.367188 53.5474 0.367188 61.3012V72.6384H67.0828V61.3012C67.0828 53.935 53.5117 45.8212 36.4186 45.032C35.522 44.973 34.6236 44.9444 33.725 44.9461ZM33.725 6.17689C39.0066 6.17689 41.6447 7.00766 42.7594 7.5615C43.1319 7.74704 43.1764 7.81904 43.282 7.90766L44.4106 22.1C41.8532 22.255 38.3673 22.7923 33.725 22.7923C29.0827 22.7923 25.5996 22.255 23.0394 22.1L24.168 7.90766C24.2708 7.81904 24.3181 7.74704 24.6906 7.5615C25.8053 7.00766 28.4433 6.17689 33.725 6.17689ZM31.465 8.94612V12.236H28.1654V16.736H31.4678V20.023H35.9822V16.7332H39.2846V12.236H35.9822V8.94612H31.4678H31.465ZM25.3855 51.1769L32.5102 67.1H5.92682V61.3012C5.92682 59.2381 13.0154 53.1957 25.3855 51.1769ZM42.0644 51.1769C54.4346 53.1984 61.5232 59.2381 61.5232 61.3012V67.1H34.9398L42.0644 51.1769Z" fill="#EC5863"/>
</svg>
